<svg width="105" height="110" viewBox="0 0 105 110" fill="none" xmlns="http://www.w3.org/2000/svg">
<mask id="mask0_408_185" style="mask-type:alpha" maskUnits="userSpaceOnUse" x="0" y="0" width="105" height="110">
<rect width="105" height="110" fill="#D9D9D9"/>
</mask>
<g mask="url(#mask0_408_185)">
<path d="M30.1894 47.1932C30.0769 51.617 31.8456 53.576 31.8894 54.8201C31.8686 55.0733 31.7995 55.3166 31.6881 55.5297C31.5766 55.7427 31.426 55.9193 31.2488 56.0447L29.2488 57.7947C28.9899 58.0215 28.6848 58.1516 28.3691 58.1697C28.3019 58.1658 27.0894 58.5272 25.1691 53.1678C23.9975 54.9958 22.5068 56.4646 20.8112 57.4615C19.1155 58.4585 17.2599 58.9573 15.3863 58.9197C12.8425 59.0936 5.94875 57.115 6.30344 47.9412C6.055 40.4646 11.6253 35.8201 17.3863 36.2127C18.4956 36.2166 20.7613 36.285 24.7284 37.4373V34.3865C25.1488 29.2186 22.4316 25.2088 17.7269 25.8104C17.3519 25.8123 14.6956 25.7127 10.5644 27.785C9.41438 28.4451 9.2675 28.3357 8.88469 28.3357C7.72688 28.3357 8.20344 24.1404 8.42532 23.6092C9.23938 22.3592 14.0284 20.0252 18.7284 20.0584C21.871 19.711 24.9967 20.9233 27.43 23.4334C28.4191 24.8164 29.1737 26.4356 29.6483 28.1933C30.1228 29.9509 30.3074 31.8106 30.1909 33.66L30.1894 47.1932ZM16.6863 53.5193C21.7534 53.4275 23.8988 49.6189 24.3878 47.5682C24.7722 45.6053 24.7081 44.3631 24.7081 42.2166C23.1972 41.7635 21.0222 41.2693 18.5269 41.2654C16.1597 41.0428 11.8363 42.365 12.005 47.5662C11.8113 50.8455 13.7425 53.699 16.6863 53.5193ZM43.3925 58.0213C42.1644 58.1619 41.5925 57.0721 41.4113 55.9959L33.63 23.8377C33.4784 23.2947 33.3784 22.7342 33.33 22.1619C33.3013 21.926 33.3487 21.6855 33.4618 21.4932C33.5749 21.3009 33.7444 21.1726 33.9331 21.1365C33.9706 21.1287 33.6003 21.1365 37.4097 21.1365C38.7816 20.9647 39.2284 22.3143 39.3706 23.1619L44.9519 50.6678L50.1331 23.1619C50.2159 22.533 50.5925 20.9998 52.1331 21.1619H54.8144C55.1534 21.1268 56.5503 21.0643 56.7956 23.1873L62.0175 51.0447L67.7784 23.1873C67.8534 22.7615 68.2034 20.9666 69.7597 21.1619H72.8409C72.9738 21.1365 73.8019 21.0037 73.6613 22.8377C73.5941 23.199 74.1941 20.7557 65.4191 56.0213C65.2394 57.0975 64.6659 58.1873 63.4378 58.0467H60.5175C58.8081 58.2713 58.5628 56.16 58.5363 55.9471L53.355 29.1639L48.2331 55.9197C48.2081 56.1326 47.9628 58.2439 46.2519 58.0193H43.3925V58.0213ZM86.1238 59.1209C85.205 59.1229 80.8238 59.0623 77.1613 56.7205C76.7964 56.5274 76.4857 56.2033 76.2684 55.7891C76.0512 55.375 75.9372 54.8895 75.9409 54.3943V52.2947C75.9409 50.6443 76.9097 50.9471 77.3206 51.1443C78.8894 51.9373 79.8956 52.5389 81.8222 53.0193C87.5488 54.49 90.0675 52.5701 90.6847 52.1443C92.7394 50.6189 92.9019 47.1287 91.505 45.3182C89.8675 43.6014 89.0863 43.5369 83.2034 41.2166C82.4784 40.9647 76.3753 38.5584 76.3613 30.99C76.2659 25.4744 80.2753 20.0174 87.2238 20.0623C89.2034 20.0604 94.4784 20.8689 95.9066 23.1131C96.1175 23.5213 96.2222 24.0018 96.2066 24.4881V26.4627C96.2066 27.3299 95.9534 27.7635 95.4456 27.7635C94.2409 27.5955 92.1034 25.5818 87.7644 25.6639C86.6878 25.5936 81.5316 25.8416 81.7628 30.5408C81.6956 34.2439 85.9206 35.6326 86.4034 35.7928C92.1003 37.9354 94.005 38.2908 96.2659 41.5701C98.9441 45.9158 97.5003 51.0037 96.9456 52.3982C93.9644 59.7205 86.255 59.1248 86.1238 59.1209ZM92.405 79.6014C81.4628 89.7029 65.5784 95.0799 52.0159 95.0799C33.716 95.2307 16.0328 86.8196 2.4425 71.4998C1.42219 70.3494 2.32219 68.7732 3.56282 69.6502C18.6385 80.4298 35.7074 86.0938 53.0753 86.0799C66.0452 85.9929 78.8736 82.7041 90.8237 76.4022C92.6644 75.4256 94.2253 77.9256 92.405 79.6014ZM96.9659 73.0994C95.5659 70.8494 87.7034 72.0486 84.1831 72.574C83.1222 72.7244 82.9425 71.574 83.9034 70.7244C90.1644 65.2225 100.447 66.7986 101.628 68.6482C102.808 70.4979 101.308 83.3768 95.4472 89.5291C94.5472 90.4803 93.6862 89.9783 94.0862 88.7283C95.405 84.5779 98.3659 75.3514 96.9659 73.0994Z" fill="black"/>
</g>
</svg>
