<svg width="105" height="110" viewBox="0 0 105 110" fill="none" xmlns="http://www.w3.org/2000/svg">
<mask id="mask0_408_176" style="mask-type:alpha" maskUnits="userSpaceOnUse" x="0" y="0" width="105" height="110">
<rect width="105" height="110" fill="#D9D9D9"/>
</mask>
<g mask="url(#mask0_408_176)">
<path d="M10 5L17.6629 95L52.0708 105L86.4667 95.0063L94.1417 5H10Z" fill="#2196F3"/>
<path d="M77.7577 34.4311L76.7901 45.7374L73.8691 79.6311L52.0704 85.8999L52.0524 85.9061L30.2657 79.6311L28.7452 61.9061H39.4191L40.2125 71.0999L52.0584 74.4249L52.0644 74.4186L63.9284 71.0936L65.5451 55.7749L28.2343 55.8811L27.1765 45.4061L66.4406 44.9249L67.234 33.7124L26.1248 33.8311L25.4336 23.3999H52.0704H78.7073L77.7577 34.4311Z" fill="#FAFAFA"/>
</g>
</svg>
