<svg width="105" height="110" viewBox="0 0 105 110" fill="none" xmlns="http://www.w3.org/2000/svg">
<mask id="mask0_408_187" style="mask-type:alpha" maskUnits="userSpaceOnUse" x="0" y="0" width="105" height="110">
<rect width="105" height="110" fill="#D9D9D9"/>
</mask>
<g mask="url(#mask0_408_187)">
<path d="M47.8378 0H68.6495V82.3958C57.9892 84.1376 50.1413 84.8229 41.6505 84.8229C16.2318 84.8 3.00018 74.9907 3.00018 56.1513C3.00018 37.9996 17.0354 26.2192 38.7846 26.2192C42.1594 26.2192 44.7308 26.4484 47.8378 27.136V0ZM48.5672 41.9845C46.1297 41.2969 44.1209 41.0677 41.5496 41.0677C31.0232 41.0677 24.943 46.6141 24.943 56.334C24.943 65.7972 30.7553 71.0227 41.4156 71.0227C43.7191 71.0227 45.5941 70.9104 48.5672 70.5666V41.9845Z" fill="#2BA977"/>
<path d="M102.683 28.4316V69.6857C102.683 83.8931 101.45 90.7252 97.8345 96.6154C94.4597 102.279 90.0134 105.849 80.8262 109.794L61.5145 101.933C70.7016 98.2449 75.1479 94.9859 77.9871 90.0125C80.9602 84.9268 81.8976 79.0366 81.8976 63.5434V28.4316H102.683Z" fill="#2BA977"/>
<path d="M79.8002 0H100.612V18.2664H79.8002V0Z" fill="#2BA977"/>
</g>
</svg>
