<svg width="39" height="39" viewBox="0 0 39 39" fill="none" xmlns="http://www.w3.org/2000/svg">
<mask id="mask0_377_17" style="mask-type:alpha" maskUnits="userSpaceOnUse" x="0" y="0" width="39" height="39">
<rect width="39" height="39" fill="#D9D9D9"/>
</mask>
<g mask="url(#mask0_377_17)">
<path d="M19.5 1C9.28295 1 1 9.32553 1 19.5951C1 28.918 7.83239 36.6155 16.7351 37.9603V24.5236H12.158V19.6357H16.7351V16.3832C16.7351 10.9982 19.3453 8.63413 23.7979 8.63413C25.9304 8.63413 27.0581 8.79303 27.5921 8.86572V13.1325H24.5547C22.6643 13.1325 22.0042 14.9336 22.0042 16.9639V19.6357H27.5441L26.7924 24.5236H22.0042V38C31.0339 36.7685 38 29.0084 38 19.5951C38 9.32553 29.717 1 19.5 1Z" fill="black"/>
</g>
</svg>
