<svg width="105" height="110" viewBox="0 0 105 110" fill="none" xmlns="http://www.w3.org/2000/svg">
<mask id="mask0_408_191" style="mask-type:alpha" maskUnits="userSpaceOnUse" x="0" y="0" width="105" height="110">
<rect width="105" height="110" fill="#D9D9D9"/>
</mask>
<g mask="url(#mask0_408_191)">
<path d="M66.6668 66.6668C75.8716 66.6668 83.3335 59.2049 83.3335 50.0002C83.3335 40.7954 75.8716 33.3335 66.6668 33.3335C57.4621 33.3335 50.0002 40.7954 50.0002 50.0002C50.0002 59.2049 57.4621 66.6668 66.6668 66.6668Z" fill="#19BCFE"/>
<path fill-rule="evenodd" clip-rule="evenodd" d="M33.3335 99.9998C42.5383 99.9998 50.0002 92.5379 50.0002 83.3332C50.0002 80.8204 50.0002 75.2649 50.0002 66.6665C42.5129 66.6665 36.9573 66.6665 33.3335 66.6665C24.1288 66.6665 16.6669 74.1284 16.6669 83.3332C16.6669 92.5379 24.1288 99.9998 33.3335 99.9998Z" fill="#09CF83"/>
<path fill-rule="evenodd" clip-rule="evenodd" d="M33.3335 66.6668H50.0002V33.3335C41.9573 33.3335 36.4018 33.3335 33.3335 33.3335C24.1288 33.3335 16.6669 40.7954 16.6669 50.0002C16.6669 59.2049 24.1288 66.6668 33.3335 66.6668Z" fill="#A259FF"/>
<path fill-rule="evenodd" clip-rule="evenodd" d="M33.3335 33.3333H50.0002V0C41.9573 0 36.4018 0 33.3335 0C24.1288 0 16.6669 7.46192 16.6669 16.6667C16.6669 25.8714 24.1288 33.3333 33.3335 33.3333Z" fill="#F24E1E"/>
<path fill-rule="evenodd" clip-rule="evenodd" d="M66.6668 33.3333H50.0002V0H66.6668C75.8716 0 83.3335 7.46192 83.3335 16.6667C83.3335 25.8714 75.8716 33.3333 66.6668 33.3333Z" fill="#FF7262"/>
</g>
</svg>
