<svg width="105" height="110" viewBox="0 0 105 110" fill="none" xmlns="http://www.w3.org/2000/svg">
<mask id="mask0_408_180" style="mask-type:alpha" maskUnits="userSpaceOnUse" x="0" y="0" width="105" height="110">
<rect width="105" height="110" fill="#D9D9D9"/>
</mask>
<g mask="url(#mask0_408_180)">
<path d="M29.8832 89.4349C19.3984 83.2908 10.4439 68.4582 5.81565 55.4482C3.95665 49.8044 3.31998 43.7536 0.923497 38.3278C-1.58347 34.3871 1.3531 30.0793 5.66966 28.8266C7.59149 28.4578 10.9707 26.6451 6.89166 27.9407C3.23471 30.6237 2.88079 25.5052 6.63071 25.1811C9.18985 24.841 10.1319 22.746 9.25678 20.86C6.50968 19.0686 15.9181 17.0998 11.1842 14.4267C6.25268 9.10618 18.0823 8.08196 15.1637 14.1245C14.4651 18.7709 23.4297 13.2729 21.3497 18.6385C23.4638 21.2152 29.2665 19.2249 29.1225 22.8399C32.2022 23.0516 33.2592 25.6428 36.1502 25.8418C39.1464 27.1948 44.5781 28.2611 45.5977 31.6375C42.6251 33.9909 35.7416 26.7763 35.4109 33.2908C36.6653 56.27 37.8537 64.193 48.9498 76.2312C56.4241 84.6881 66.6946 88.6762 75.3648 90.096C77.2324 88.6675 80.5297 83.3567 83.4431 85.5961C83.5814 88.1124 77.6605 90.8562 83.1646 90.5781C86.3965 89.6031 88.6382 93.0776 91.2997 89.9436C93.7517 92.8481 101.491 88.0879 99.7465 94.0246C97.3874 95.5467 93.9467 94.6269 91.5837 96.7208C87.6877 94.7749 84.5859 98.462 80.2727 97.9957C63.6451 100.906 41.9771 98.2808 29.8832 89.4349ZM49.4264 96.6265C56.6753 97.6347 64.161 99.1854 71.4359 97.7709C68.1434 96.2842 64.7395 98.3501 61.4594 96.7078C57.5253 97.5543 53.3036 96.4921 49.3042 95.9692C44.7562 93.9433 39.8481 92.5503 35.5891 89.9207C30.2672 87.9769 38.3414 92.4135 39.7786 92.7729C43.1054 94.6612 36.1202 91.8049 35.1354 91.0199C32.349 89.4568 31.9234 89.8211 34.789 91.4085C39.2573 94.1767 44.8574 96.0533 49.4264 96.6265ZM28.6786 86.7439C32.7186 88.2403 28.6608 83.9029 26.8095 84.1549C25.9893 82.732 23.6759 81.833 25.3078 81.0686C22.3723 82.0877 22.2327 77.1933 20.8529 77.8925C17.7473 76.9119 19.6442 73.4381 15.9449 71.3049C15.6073 69.057 12.2696 67.1074 11.205 63.7168C10.7348 61.9809 7.43416 56.9958 9.46178 61.6352C11.1882 66.1013 14.2257 69.9261 16.7534 73.7464C18.7162 77.3838 21.0339 81.1854 24.6086 83.4545C25.8135 84.6104 26.977 86.3816 28.6786 86.7439ZM33.8815 79.7041C31.671 78.5258 26.8589 77.9162 30.2547 80.6115C32.4346 81.4925 37.9903 81.9198 33.8815 79.7041ZM37.5864 84.3886C42.3338 85.7316 33.5942 81.3864 36.415 83.8944L37.5864 84.3886ZM37.6266 81.873C41.0755 82.3176 33.523 79.5272 36.8699 81.6233L37.6266 81.873ZM49.613 89.2431C52.8329 87.3181 51.7713 93.7507 55.0757 89.7865C58.3352 87.4066 52.2608 92.7288 56.278 90.2108C59.1833 88.2677 63.4744 91.1319 66.1852 92.0665C68.1347 91.9707 70.0299 93.7522 72.0284 92.6684C75.8756 91.6321 64.5053 91.1315 67.4859 89.293C63.9657 90.3175 61.3648 88.0716 59.6327 85.8168C55.684 84.905 51.1185 82.8862 49.1479 79.3919C48.3444 78.0798 50.3086 79.5767 48.4543 77.432C46.0749 75.3158 44.8869 72.9135 43.2896 70.341C41.3815 69.323 41.1592 66.3268 40.9663 70.2405C40.9814 67.7705 38.6625 66.108 38.0965 66.7991C38.0863 64.4203 40.5782 65.6127 38.8338 63.8527C38.4583 61.3872 37.2221 58.8181 36.8505 56.0345C36.2732 54.6926 36.7692 51.8188 34.8801 54.8564C34.1919 58.0666 34.6517 50.9113 35.722 53.2709C37.1268 50.8632 35.2177 51.1463 35.1394 51.4807C36.0546 49.4492 35.7186 46.5677 34.9007 47.667C35.3883 45.5139 35.671 39.7429 34.1709 40.7656C35.0802 38.5141 35.8954 30.4632 31.9478 33.5327C30.3479 33.5552 27.5773 34.1135 26.2677 34.7648C30.3739 37.0283 25.8546 35.5822 24.1831 35.2225C23.9653 37.3169 22.3097 36.4111 20.2413 36.4316C23.545 36.8403 18.6326 39.8104 16.7373 38.6567C14.276 39.8331 18.8616 42.7695 16.7867 43.6774C17.0417 45.0462 13.0159 43.1831 13.3321 46.3442C10.9426 45.339 13.0031 50.0939 14.1985 48.4858C18.2626 49.5857 17.0596 52.0934 17.1631 54.4755C16.5009 55.8636 13.8938 51.2128 16.5824 51.4282C14.4613 47.9825 14.2361 50.1827 12.4735 51.7835C12.0635 51.8997 16.9695 54.061 13.8907 55.1297C16.5994 55.5477 16.6764 57.918 17.2278 59.418C18.8559 61.1137 18.5227 57.5455 20.4707 59.5834C19.238 57.7679 13.9412 54.4681 18.2058 55.5264C18.183 53.6992 17.4345 52.2257 18.7411 52.2615C20.035 49.9183 17.386 58.0389 20.3025 55.0609C21.1098 54.7083 21.3098 52.7147 22.7609 55.2491C24.8687 57.3226 23.5223 58.8251 20.5491 56.9265C21.081 58.731 24.5264 59.3759 23.8789 62.1978C24.5653 64.6797 25.5257 63.7655 26.3627 63.622C27.0194 66.0335 27.3923 64.2603 27.4234 63.1128C30.43 63.7564 29.7258 65.5336 30.6665 66.7753C32.7383 67.7105 27.7011 60.4366 31.258 64.5881C35.0002 67.9668 32.6817 69.1314 29.3031 68.8359C32.1133 69.0658 32.1724 71.569 34.7728 71.6024C37.033 72.7679 38.8144 77.1404 34.6354 75.2963C32.2788 73.8342 28.081 72.4225 32.2704 74.9083C33.2622 75.5361 39.2129 77.7721 42.9447 80.0213C45.0109 81.4337 46.7693 84.1116 47.7816 84.5439C45.5369 85.616 41.0171 83.6878 44.3733 83.0968C42.28 82.7155 39.9981 81.6418 41.9305 84.2651C43.5922 85.7844 47.9711 85.5379 48.7483 85.6992C48.0895 87.1508 46.9589 87.2663 48.7753 87.3788C46.7489 88.4588 49.4251 88.626 49.613 89.2431ZM45.2501 75.9378C43.9173 73.8364 44.2361 76.2514 45.469 77.5408C47.4395 79.8844 45.9335 76.2123 45.2501 75.9378ZM37.8925 65.0671C37.8925 65.0671 38.221 62.8503 37.2074 62.6051C36.1939 62.3599 36.7522 62.768 37.5632 64.5229C37.7567 64.9414 37.8761 65.0866 37.8745 65.077M26.798 56.6645C25.7912 54.4096 27.2771 55.634 27.0607 54.6723C26.596 53.7056 22.0787 48.5717 24.1364 52.4475C25.9984 57.0712 22.9648 51.8671 22.6483 50.2918C22.2985 51.2591 23.3851 54.4276 24.0419 55.5075C25.7141 58.0827 24.9619 54.0972 26.798 56.6645ZM17.5475 47.7731C14.9331 45.5739 18.3535 48.8571 17.2918 48.8157C14.5366 46.8035 15.6628 48.229 17.219 49.7755C18.9051 52.2807 20.2967 48.2744 17.5475 47.7731ZM18.8898 48.1512C23.8356 49.5101 13.6264 43.3785 18.1506 47.4047L18.8898 48.1512ZM32.5765 53.9968C31.1569 54.0257 33.1653 50.9057 31.262 51.5214C30.5944 46.6722 29.1554 53.7624 31.1132 54.9363C31.7177 56.6731 32.3528 55.9654 32.5765 53.9968ZM20.8997 47.0988C27.4852 50.1381 16.1316 42.0716 19.0381 46.0817C19.3836 46.8546 20.2116 46.9188 20.8997 47.0988ZM21.6545 45.5234C26.6422 47.5851 21.2108 44.1818 19.4834 44.5513C19.9188 45.1886 21.1003 44.9099 21.6545 45.5234ZM22.3223 43.6571C23.9414 43.3337 22.1076 42.8146 21.1401 42.0458C18.9009 38.682 21.4731 42.3174 20.7693 43.3498C21.7012 44.2659 24.8688 45.9035 22.3223 43.6571ZM33.777 38.4382C33.1158 41.9326 32.4414 40.4751 33.3892 37.8698C33.1624 34.5262 31.1304 39.9175 32.0284 41.5C33.5132 43.8651 34.998 35.688 33.777 38.4382ZM35.7513 80.0429C38.323 80.7028 38.3098 79.6428 35.9856 79.3279C34.7354 78.1649 30.7907 76.9313 34.3214 79.1836C34.5552 79.7759 35.2941 79.7621 35.7513 80.0429ZM26.6206 73.9783C28.0373 75.0348 31.9571 76.9726 28.6389 74.3805C29.7576 73.0807 26.4976 72.3888 27.579 71.5193C24.8283 69.8362 25.4091 69.9859 27.3362 70.0389C24.0304 68.5612 27.8134 68.6718 27.6353 67.9146C26.3606 67.6629 21.3038 65.6669 24.2787 68.0786C21.2546 66.5367 23.558 68.653 22.644 68.4292C19.5516 67.5861 25.3979 70.7845 22.1528 69.9905C23.9269 71.3964 26.9281 73.5916 22.9029 71.4783C22.3725 72.2417 25.7834 73.3989 26.6206 73.9783ZM58.7524 92.8219C60.1088 91.5076 58.8078 94.9156 61 92.5002C61.0237 90.771 60.9325 89.7497 58.4808 91.8502C57.805 92.225 57.5033 93.8186 58.7524 92.8219ZM36.5394 78.5604C38.0483 79.9007 43.4695 79.5438 38.3721 78.7253C37.6171 77.6091 33.5781 77.8777 36.5394 78.5604ZM11.6863 61.866C9.4944 58.7386 10.3237 57.3329 8.21003 54.7793C7.80989 52.8266 4.5839 48.3955 6.54149 53.0899C8.33452 55.8355 8.86733 60.0864 11.6863 61.866ZM76.6282 92.7316C78.7607 92.2993 83.6203 93.817 84.4057 92.1662C81.816 92.1033 75.446 90.3391 75.1446 92.5872L76.6282 92.7316ZM4.01095 38.8437C3.62229 36.6157 3.15229 32.7048 6.86987 34.0265C1.90752 35.0117 10.3044 40.1942 9.24399 36.1024C11.3305 36.2046 13.3258 34.8693 12.2308 36.8957C16.3419 36.4417 19.1921 32.8767 23.1631 33.3763C26.2564 32.9669 29.6384 32.6565 32.9718 31.4113C35.7125 31.2139 38.3508 28.2632 36.8485 26.5142C33.111 26.1979 29.1987 26.6656 25.0677 27.4867C20.4901 28.4383 16.3321 30.2463 11.7133 31.0224C7.21137 31.6271 12.6189 32.6886 11.3293 32.9251C8.98013 33.7402 14.1309 34.2899 11.0248 35.1491C9.10646 34.7844 7.10976 34.1253 7.92917 32.1038C3.6167 32.6634 -0.17273 34.4532 3.23439 38.8417L4.01095 38.8437ZM15.5366 34.0461C19.2964 36.6165 14.8904 29.8265 13.8793 33.5514C14.3489 33.4359 15.0875 33.71 15.5366 34.0461ZM16.6067 32.3238C20.1709 32.6822 16.0608 30.0609 15.929 31.7068L16.6067 32.3238ZM22.58 30.1409C27.8409 29.1395 20.6536 28.4695 19.1122 30.3215C20.089 30.7669 21.1699 29.0793 22.58 30.1409ZM31.6036 28.3487C34.9292 27.838 32.1263 26.3114 31.1533 28.8611C31.506 29.665 31.6758 28.62 31.6036 28.3487ZM13.7138 41.9349C15.5935 41.8058 16.6547 39.8615 13.3503 39.9732C8.22889 39.443 17.8687 41.7268 12.6933 41.0738C11.9978 41.5343 13.6734 42.0624 13.7138 41.9349ZM11.0816 27.0869C14.4364 25.9456 18.6714 24.9763 20.5595 27.7286C19.1393 25.7249 19.9573 23.7985 21.4799 26.6353C23.6329 29.5055 24.4055 25.8979 23.3104 24.3671C24.3522 26.015 28.2202 29.603 24.3788 24.4925C26.9242 21.4306 19.2822 24.8934 17.5452 24.8585C16.7095 25.2336 8.91701 26.8458 11.0816 27.0869ZM13.0477 23.3215C14.9609 21.8775 19.6647 24.1805 16.6463 21.8864C16.3512 21.6257 10.0361 23.626 13.0477 23.3215ZM20.0228 23.6095C22.262 23.6666 19.0569 20.6014 21.7252 21.9903C21.287 20.5587 18.6186 20.2907 17.314 19.7188C16.5762 21.0276 18.8159 23.6271 20.0228 23.6095ZM11.7985 13.795C9.25777 10.4783 16.5767 14.3526 13.9953 10.8799C11.8227 9.14975 9.73485 12.8268 11.7985 13.795ZM44.4049 31.3578C45.5703 29.292 39.5938 28.5732 43.6198 30.6257C43.9905 30.7495 43.9066 31.5007 44.4049 31.3578Z" fill="black"/>
</g>
</svg>
