<svg width="39" height="39" viewBox="0 0 39 39" fill="none" xmlns="http://www.w3.org/2000/svg">
<mask id="mask0_377_18" style="mask-type:alpha" maskUnits="userSpaceOnUse" x="0" y="0" width="39" height="39">
<rect width="39" height="39" fill="#D9D9D9"/>
</mask>
<g mask="url(#mask0_377_18)">
<path d="M19.4844 2C9.82422 1.9961 2 9.81641 2 19.4688C2 27.1016 6.89453 33.5899 13.7109 35.9727C14.6289 36.2032 14.4883 35.5508 14.4883 35.1055V32.0782C9.1875 32.6992 8.97266 29.1914 8.61719 28.6055C7.89844 27.3789 6.19922 27.0664 6.70703 26.4805C7.91406 25.8594 9.14453 26.6367 10.5703 28.7422C11.6016 30.2696 13.6133 30.0117 14.6328 29.7578C14.8555 28.8399 15.332 28.0196 15.9883 27.3828C10.4961 26.3985 8.20703 23.0469 8.20703 19.0625C8.20703 17.1289 8.84375 15.3516 10.0938 13.918C9.29688 11.5547 10.168 9.53126 10.2852 9.23048C12.5547 9.02735 14.9141 10.8555 15.0977 11C16.3867 10.6524 17.8594 10.4688 19.5078 10.4688C21.1641 10.4688 22.6406 10.6602 23.9414 11.0117C24.3828 10.6758 26.5703 9.10548 28.6797 9.29688C28.793 9.59766 29.6445 11.5742 28.8945 13.9063C30.1602 15.3438 30.8047 17.1367 30.8047 19.0742C30.8047 23.0664 28.5 26.4219 22.9922 27.3906C23.4639 27.8546 23.8385 28.4079 24.0941 29.0182C24.3496 29.6285 24.481 30.2837 24.4805 30.9453V35.3399C24.5117 35.6914 24.4805 36.0391 25.0664 36.0391C31.9844 33.7071 36.9648 27.1719 36.9648 19.4727C36.9648 9.81641 29.1367 2 19.4844 2V2Z" fill="black"/>
</g>
</svg>
