<svg width="475" height="563" viewBox="0 0 475 563" fill="none" xmlns="http://www.w3.org/2000/svg">
<mask id="mask0_394_6" style="mask-type:alpha" maskUnits="userSpaceOnUse" x="0" y="0" width="475" height="563">
<rect width="475" height="563" fill="#D9D9D9"/>
</mask>
<g mask="url(#mask0_394_6)">
<path d="M413.527 161.017C361.619 210.063 310.671 170.653 287.313 143.635C263.955 116.616 277.031 112.221 328.939 63.1752C380.847 14.129 441.863 -3.72808 465.221 23.2902C488.579 50.3086 465.435 111.971 413.527 161.017Z" fill="black"/>
<path d="M413.527 161.017C361.619 210.063 310.671 170.653 287.313 143.635C263.955 116.616 277.031 112.221 328.939 63.1752C380.847 14.129 441.863 -3.72808 465.221 23.2902C488.579 50.3086 465.435 111.971 413.527 161.017Z" fill="black"/>
<path d="M413.527 161.017C361.619 210.063 310.671 170.653 287.313 143.635C263.955 116.616 277.031 112.221 328.939 63.1752C380.847 14.129 441.863 -3.72808 465.221 23.2902C488.579 50.3086 465.435 111.971 413.527 161.017Z" fill="black"/>
<path d="M326.533 124.948C328.605 196.17 345.93 139.121 310.233 141.879C274.537 144.637 275.33 130.888 200.315 115.635C198.242 44.4129 222.449 3.7405 258.146 0.982567C293.842 -1.77537 324.46 53.7257 326.533 124.948Z" fill="black"/>
<path d="M326.533 124.948C328.605 196.17 345.93 139.121 310.233 141.879C274.537 144.637 275.33 130.888 200.315 115.635C198.242 44.4129 222.449 3.7405 258.146 0.982567C293.842 -1.77537 324.46 53.7257 326.533 124.948Z" fill="black"/>
<path d="M326.533 124.948C328.605 196.17 345.93 139.121 310.233 141.879C274.537 144.637 275.33 130.888 200.315 115.635C198.242 44.4129 222.449 3.7405 258.146 0.982567C293.842 -1.77537 324.46 53.7257 326.533 124.948Z" fill="black"/>
<path d="M128.666 80.2441L402.104 201.34C437.958 217.219 454.151 259.156 438.273 295.009L325.23 550.262L51.7922 429.166C15.9387 413.287 -0.254527 371.35 15.6238 335.497L128.666 80.2441Z" stroke="black" stroke-width="18"/>
<path d="M213.025 200.811L133.885 379.511L110.587 369.193L189.727 190.493L213.025 200.811ZM392.923 280.482L383.286 302.243L321.585 274.918L252.083 431.857L228.785 421.539L298.288 264.601L236.588 237.276L246.225 215.514L392.923 280.482Z" fill="black"/>
</g>
</svg>
