<svg width="105" height="110" viewBox="0 0 105 110" fill="none" xmlns="http://www.w3.org/2000/svg">
<mask id="mask0_409_198" style="mask-type:alpha" maskUnits="userSpaceOnUse" x="0" y="0" width="105" height="110">
<rect width="105" height="110" fill="#D9D9D9"/>
</mask>
<g mask="url(#mask0_409_198)">
<path d="M55.4943 50.628C60.2013 56.046 54.2599 60.9171 54.2599 60.9171C54.2599 60.9171 66.2044 54.7522 60.7201 47.0288C55.5958 39.8296 51.6677 36.2538 72.9349 23.9194C72.9349 23.9202 39.5513 32.2554 55.4943 50.628Z" fill="#EA2D2E"/>
<path d="M60.7201 4C60.7201 4 70.8513 14.1375 51.1083 29.7211C35.2755 42.2258 47.4982 49.3539 51.1029 57.5016C41.8599 49.1633 35.0802 41.8219 39.6279 34.9898C46.306 24.9633 64.8068 20.1 60.7201 4Z" fill="#EA2D2E"/>
<path d="M38.1623 79.4165C38.1623 79.4165 34.438 81.5837 40.8162 82.3149C48.5443 83.1978 52.4935 83.0712 61.0076 81.4618C61.0076 81.4618 63.2505 82.8642 66.3771 84.0798C47.2841 92.2595 23.1677 83.6056 38.1623 79.4165ZM35.8279 68.7407C35.8279 68.7407 31.6498 71.8337 38.0333 72.4946C46.2888 73.347 52.8068 73.4165 64.0912 71.2446C64.0912 71.2446 65.6482 72.8267 68.1005 73.6907C45.0209 80.4407 19.3146 74.222 35.8279 68.7407Z" fill="#0074BD"/>
<path d="M80.7451 87.3142C80.7451 87.3142 83.5021 89.5876 77.7076 91.3447C66.6904 94.6822 31.8435 95.6884 22.1654 91.4783C18.688 89.9642 25.2115 87.865 27.2638 87.422C29.4037 86.9587 30.6255 87.0431 30.6255 87.0431C26.756 84.3189 5.61538 92.3947 19.8888 94.7111C58.8115 101.02 90.8396 91.8697 80.7451 87.3142ZM39.9552 57.6775C39.9552 57.6775 22.2318 61.8876 33.6794 63.4181C38.5138 64.065 48.1466 63.9166 57.1255 63.1634C64.4615 62.547 71.8232 61.2306 71.8232 61.2306C71.8232 61.2306 69.2388 62.3392 67.3669 63.6158C49.3654 68.3509 14.5982 66.1455 24.6083 61.3048C33.0708 57.2119 39.9552 57.6775 39.9552 57.6775ZM71.7498 75.4486C90.0474 65.9431 81.5865 56.808 75.681 58.0384C74.2373 58.3392 73.5896 58.6009 73.5896 58.6009C73.5896 58.6009 74.1271 57.758 75.1521 57.3955C86.8341 53.29 95.8169 69.5072 71.3841 75.9306C71.3841 75.9291 71.6646 75.6751 71.7498 75.4486Z" fill="#0074BD"/>
<path d="M41.7536 101.214C59.313 102.337 86.2849 100.589 86.9232 92.2798C86.9232 92.2798 85.6958 95.4298 72.4099 97.929C57.4208 100.751 38.9302 100.422 27.9669 98.6118C27.9669 98.6126 30.213 100.472 41.7536 101.214Z" fill="#0074BD"/>
</g>
<mask id="mask1_409_198" style="mask-type:alpha" maskUnits="userSpaceOnUse" x="0" y="0" width="105" height="110">
<rect width="105" height="110" fill="#D9D9D9"/>
</mask>
<g mask="url(#mask1_409_198)">
</g>
</svg>
