<svg width="105" height="110" viewBox="0 0 105 110" fill="none" xmlns="http://www.w3.org/2000/svg">
<mask id="mask0_408_178" style="mask-type:alpha" maskUnits="userSpaceOnUse" x="0" y="0" width="105" height="110">
<rect width="105" height="110" fill="#D9D9D9"/>
</mask>
<g mask="url(#mask0_408_178)">
<path d="M4.00018 5H100.242V105H4.00018V5Z" fill="#F7DF1E"/>
<path d="M29.3059 88.5673L36.671 83.936C38.0919 86.5536 39.3845 88.7684 42.4848 88.7684C45.4567 88.7684 47.3304 87.5605 47.3304 82.862V50.9097H56.3747V82.9949C56.3747 92.7282 50.8837 97.1586 42.8725 97.1586C35.6374 97.1586 31.4376 93.2651 29.3058 88.5665" fill="black"/>
<path d="M61.287 87.5605L68.6512 83.1302C70.5898 86.4197 73.1093 88.836 77.5667 88.836C81.3142 88.836 83.7039 86.8892 83.7039 84.2041C83.7039 80.9821 81.2491 79.8408 77.1144 77.9619L74.8539 76.9543C68.3285 74.0684 63.9999 70.4437 63.9999 62.7911C63.9999 55.7429 69.1681 50.3726 77.2439 50.3726C82.9937 50.3726 87.1283 52.4537 90.0997 57.891L83.0578 62.5895C81.5073 59.7033 79.8281 58.5624 77.2441 58.5624C74.5953 58.5624 72.9155 60.3076 72.9155 62.5895C72.9155 65.4089 74.5953 66.5503 78.4711 68.2957L80.732 69.3025C88.4199 72.7262 92.7485 76.2164 92.7485 84.0698C92.7485 92.5283 86.3528 97.1595 77.7607 97.1595C69.3623 97.1595 63.9355 92.9979 61.2871 87.5605" fill="black"/>
</g>
</svg>
