<svg width="39" height="39" viewBox="0 0 39 39" fill="none" xmlns="http://www.w3.org/2000/svg">
<mask id="mask0_377_19" style="mask-type:alpha" maskUnits="userSpaceOnUse" x="0" y="0" width="39" height="39">
<rect width="39" height="39" fill="#D9D9D9"/>
</mask>
<g mask="url(#mask0_377_19)">
<path d="M19.2 1C8.596 1 0 9.59604 0 20.2001C0 30.8041 8.596 39.4002 19.2 39.4002C29.804 39.4002 38.4 30.8041 38.4 20.2001C38.4 9.59604 29.804 1 19.2 1ZM14.5 28.1581H10.612V15.6461H14.5V28.1581ZM12.532 14.1101C11.304 14.1101 10.51 13.2401 10.51 12.1641C10.51 11.066 11.328 10.222 12.582 10.222C13.836 10.222 14.604 11.066 14.628 12.1641C14.628 13.2401 13.836 14.1101 12.532 14.1101ZM28.7 28.1581H24.812V21.2241C24.812 19.6101 24.248 18.5141 22.842 18.5141C21.768 18.5141 21.13 19.2561 20.848 19.9701C20.744 20.2241 20.718 20.5841 20.718 20.9421V28.1561H16.828V19.6361C16.828 18.0741 16.778 16.7681 16.726 15.6441H20.104L20.282 17.3821H20.36C20.872 16.5661 22.126 15.3621 24.224 15.3621C26.782 15.3621 28.7 17.0761 28.7 20.7601V28.1581V28.1581Z" fill="black"/>
</g>
</svg>
