<svg width="99" height="118" viewBox="0 0 99 118" fill="none" xmlns="http://www.w3.org/2000/svg">
<path d="M51.026 73.384L48.188 67.49H46.813L43.974 73.384V91.936H51.026V73.384Z" fill="black"/>
<path d="M46.598 62.355C46.591 62.376 46.593 62.4 46.584 62.418C46.517 62.633 46.221 63.729 45.814 65.248L46.813 66.815H48.188L49.186 65.249C48.786 63.75 48.489 62.656 48.41 62.403C48.403 62.388 48.407 62.37 48.4 62.354L46.598 62.355Z" fill="black"/>
<path d="M50.145 61.589C50.646 63.399 51.822 67.85 52.733 71.315L61.22 61.833C61.11 58.776 60.946 56.17 60.729 54.022C60.45 54.411 60.133 54.799 59.775 55.189C56.986 58.228 52.234 60.736 50.145 61.589Z" fill="black"/>
<path d="M87.205 62.1649L70.847 55.7429L75.55 60.7889C75.988 61.2599 76.095 61.9249 75.873 62.4889C77.157 61.8389 77.566 61.7369 77.963 61.7369C78.687 61.7369 79.325 62.1919 79.552 62.8679C79.75 63.4629 79.775 63.5379 73.975 91.2369C73.926 91.4689 73.877 91.7029 73.829 91.9349H95C94.944 89.5789 87.205 62.1649 87.205 62.1649Z" fill="black"/>
<path d="M78.013 63.3819C78.008 63.3669 77.991 63.3609 77.963 63.3609C77.228 63.3609 68.937 68.2539 68.417 68.3829C68.411 68.3839 68.406 68.3849 68.402 68.3849C68.006 68.3849 74.363 61.8959 74.363 61.8959L61.387 47.9729C61.252 48.5139 63.01 50.2719 63.01 72.4389C63.01 78.4069 63.01 85.1979 63.01 91.9359H72.171C75.098 77.9679 78.082 63.5899 78.013 63.3819Z" fill="black"/>
<path d="M33.781 61.832L42.268 71.314C43.179 67.849 44.355 63.398 44.855 61.587C42.768 60.735 38.022 58.232 35.232 55.194C34.871 54.801 34.552 54.41 34.271 54.02C34.054 56.171 33.89 58.776 33.781 61.832Z" fill="black"/>
<path d="M21.026 91.2379C15.225 63.5389 15.251 63.4639 15.449 62.8699C15.675 62.1929 16.313 61.7379 17.037 61.7379C17.433 61.7379 17.843 61.8399 19.126 62.4899C18.904 61.9259 19.011 61.2609 19.45 60.7899L24.154 55.7439L7.795 62.1659C7.795 62.1659 0.055 89.5799 0 91.9369H21.173C21.124 91.7029 21.075 91.4699 21.026 91.2379Z" fill="black"/>
<path d="M31.991 72.4389C31.991 50.2719 33.747 48.5139 33.613 47.9729L20.637 61.8959C20.637 61.8959 26.994 68.3849 26.598 68.3849C26.595 68.3849 26.589 68.3839 26.583 68.3829C26.062 68.2529 17.771 63.3609 17.037 63.3609C17.009 63.3609 16.993 63.3679 16.987 63.3819C16.918 63.5899 19.902 77.9679 22.83 91.9359H31.992C31.991 85.1969 31.991 78.4059 31.991 72.4389Z" fill="black"/>
<path d="M67.072 22.934C67.072 23.519 66.859 24.078 66.475 24.611C70.186 23.383 71.559 22.026 71.559 21.095C71.559 20.168 70.169 18.791 66.391 17.554L67.065 22.831C67.07 22.865 67.072 22.899 67.072 22.934Z" fill="black"/>
<path d="M28.522 24.6109C28.14 24.0779 27.926 23.5189 27.926 22.9339C27.926 22.8989 27.928 22.8659 27.932 22.8309L28.604 17.5549C24.831 18.7899 23.439 20.1639 23.439 21.0949C23.439 22.0259 24.812 23.3829 28.522 24.6109Z" fill="black"/>
<path d="M33.487 25.85C37.566 26.622 42.406 27.042 47.499 27.042C52.592 27.042 57.432 26.622 61.511 25.85C63.94 24.988 65.406 23.92 65.449 22.977L63.24 5.65401C63.236 5.64601 63.059 4.93401 62.42 4.13501C62.257 4.31501 62.055 4.48401 61.814 4.64101C61.763 4.69001 61.716 4.74201 61.65 4.77601C61.603 4.80101 61.554 4.81701 61.505 4.83301C57.832 6.86601 48.008 6.89501 47.498 6.89501C46.986 6.89501 37.072 6.86601 33.443 4.80301C33.411 4.79001 33.378 4.79001 33.346 4.77301C33.288 4.74201 33.246 4.69501 33.199 4.65101C32.953 4.49201 32.744 4.31901 32.578 4.13501C31.936 4.94401 31.756 5.67601 31.744 5.72901L29.549 22.978C29.593 23.92 31.059 24.988 33.487 25.85Z" fill="black"/>
<path d="M60.057 3.75C58.328 1.791 53.782 0 47.499 0C41.217 0 36.67 1.791 34.941 3.75C36.915 4.486 41.229 5.272 47.499 5.272C53.769 5.273 58.082 4.487 60.057 3.75Z" fill="black"/>
<path d="M47.888 33.9005C48.944 33.9005 48.714 35.7355 49.723 37.6165C50.732 39.4975 52.292 40.7135 55.652 40.2765C59.012 39.8405 59.631 37.6615 59.631 37.6615C59.631 37.6615 60.732 34.4045 61.007 33.6935C61.283 32.9825 61.741 33.1205 61.741 33.0055L62.039 31.1475C62.039 31.1475 55.983 29.5875 49.263 31.4915C49.263 31.4915 48.3 31.7665 47.887 31.7665H47.11C46.697 31.7665 45.734 31.4915 45.734 31.4915C39.013 29.5875 32.957 31.1475 32.957 31.1475L33.255 33.0055C33.255 33.1205 33.713 32.9825 33.989 33.6935C34.264 34.4045 35.365 37.6615 35.365 37.6615C35.365 37.6615 35.984 39.8405 39.344 40.2765C42.704 40.7135 44.264 39.4975 45.273 37.6165C46.282 35.7355 46.053 33.9005 47.108 33.9005H47.888Z" fill="black"/>
<path fill-rule="evenodd" clip-rule="evenodd" d="M11.5171 117.966H15.4832C15.6262 117.966 15.7642 117.906 15.8656 117.801C15.9671 117.695 16.0239 117.553 16.0239 117.403V115.783H21.474C22.0035 115.783 22.5097 115.565 22.884 115.176C23.2583 114.787 23.4683 114.262 23.4683 113.712L23.4683 107.077C23.4663 105.934 22.5746 105.009 21.474 105.009L16.524 105.009C16.312 103.443 15.0228 102.279 13.5 102.279C11.9773 102.279 10.6882 103.443 10.4761 105.009H5.531C4.89499 105.005 4.37968 104.47 4.37867 103.809L4.37867 97.1704C4.38171 96.5109 4.896 95.9778 5.531 95.9767H10.3543L13.2778 99.0076C13.3366 99.0698 13.4177 99.1046 13.5009 99.1046C13.5851 99.1046 13.6652 99.0698 13.7241 99.0076L16.8434 95.768C16.9032 95.7069 16.9367 95.6236 16.9367 95.5362C16.9367 95.4498 16.9032 95.3655 16.8434 95.3044L13.7241 92.0626C13.6003 91.9362 13.4025 91.9362 13.2777 92.0626L10.3543 95.1H5.53099C4.4314 95.101 3.53977 96.0281 3.53977 97.1702L3.53977 103.808C3.53977 104.951 4.4314 105.877 5.53099 105.88H10.4761C10.6881 107.445 11.9773 108.609 13.5 108.609C15.0227 108.609 16.3118 107.445 16.524 105.88H21.474C22.111 105.88 22.6284 106.415 22.6294 107.076L22.6294 113.712C22.6284 114.374 22.112 114.911 21.474 114.912L16.0239 114.912V113.285C16.0239 113.136 15.9671 112.993 15.8656 112.888C15.7642 112.782 15.6262 112.723 15.4832 112.723H11.5171C11.2189 112.723 10.9764 112.974 10.9764 113.285L10.9764 117.406C10.9764 117.717 11.2189 117.968 11.5171 117.968L11.5171 117.966ZM5.21469 116.151L5.58798 115.783H0.918941C0.687665 115.783 0.5 115.588 0.5 115.347C0.5 115.107 0.68766 114.912 0.918941 114.912H5.58798L5.21469 114.541C5.12441 114.464 5.06862 114.352 5.06152 114.231C5.0534 114.11 5.09499 113.991 5.17614 113.904C5.25628 113.815 5.36786 113.767 5.48553 113.768C5.60218 113.77 5.71275 113.821 5.79086 113.912L6.92696 115.036L6.94319 115.053V115.052C7.10244 115.227 7.09534 115.502 6.92696 115.667L5.79086 116.766C5.71275 116.856 5.60218 116.908 5.48553 116.909C5.36786 116.911 5.25628 116.862 5.17614 116.774C5.09499 116.686 5.0534 116.568 5.06152 116.447C5.06862 116.326 5.12441 116.213 5.21469 116.137V116.151ZM24.6551 96.3414L25.0314 95.9768L20.3624 95.9768C20.1311 95.9768 19.9434 95.7819 19.9434 95.5407C19.9434 95.3005 20.1311 95.1055 20.3624 95.1055H25.0314L24.6551 94.7347C24.4978 94.5672 24.4968 94.2996 24.653 94.13C24.8082 93.9604 25.0659 93.9498 25.2343 94.1058L26.3704 95.2299L26.3866 95.2467V95.2457C26.5438 95.4206 26.5367 95.6934 26.3704 95.8588L25.2343 96.9829V96.9819C25.0659 97.1378 24.8083 97.1273 24.653 96.9577C24.4968 96.788 24.4978 96.5204 24.6551 96.3529V96.3414Z" fill="black"/>
<path d="M35.44 103.448C35.44 103.528 35.3467 103.568 35.16 103.568C34.9867 103.568 34.9 103.521 34.9 103.428C34.7667 102.774 34.5667 102.414 34.3 102.348C33.82 102.241 33.0933 102.174 32.12 102.148H31.74C31.6067 102.161 31.54 102.268 31.54 102.468V108.828C31.54 109.841 31.6733 110.348 31.94 110.348H32.94C33.0467 110.348 33.1 110.454 33.1 110.668C33.1 110.868 33.06 110.968 32.98 110.968L30.66 110.948L28.66 111.008C28.5667 111.008 28.52 110.908 28.52 110.708C28.52 110.508 28.56 110.408 28.64 110.408H29.54C29.6867 110.408 29.7733 110.381 29.8 110.328C29.8267 110.261 29.84 110.094 29.84 109.828V103.748C29.84 102.748 29.72 102.214 29.48 102.148C28.4 102.148 27.5933 102.214 27.06 102.348C26.7933 102.414 26.5933 102.774 26.46 103.428C26.46 103.521 26.3667 103.568 26.18 103.568C26.0067 103.568 25.92 103.528 25.92 103.448L26.02 101.048C26.02 100.968 26.1067 100.928 26.28 100.928C26.4667 100.928 26.56 100.968 26.56 101.048V101.308C26.56 101.308 27.4333 101.321 29.18 101.348H30.66C32.6867 101.348 34.0467 101.334 34.74 101.308H34.8V101.048C34.8 100.968 34.8867 100.928 35.06 100.928C35.2467 100.928 35.34 100.968 35.34 101.048L35.44 103.448ZM36.8316 101.308L38.8716 101.348H43.0116V101.028C43.0116 100.948 43.0982 100.908 43.2716 100.908C43.4582 100.908 43.5516 100.948 43.5516 101.028C43.5516 102.081 43.5982 102.834 43.6916 103.288C43.7182 103.368 43.6449 103.408 43.4716 103.408C43.2449 103.408 43.1316 103.368 43.1316 103.288C42.9449 102.674 42.7649 102.328 42.5916 102.248C42.0316 102.048 41.2182 101.948 40.1516 101.948C39.9649 101.961 39.8382 102.014 39.7716 102.108C39.7049 102.201 39.6716 102.368 39.6716 102.608V105.888C41.2849 105.834 42.1716 105.761 42.3316 105.668L42.4716 104.828C42.4982 104.761 42.5916 104.728 42.7516 104.728C42.9249 104.728 43.0116 104.774 43.0116 104.868C42.9582 105.254 42.9316 105.688 42.9316 106.168C42.9316 106.634 42.9582 107.061 43.0116 107.448C43.0116 107.528 42.9182 107.568 42.7316 107.568C42.5582 107.568 42.4716 107.541 42.4716 107.488L42.3116 106.628C42.1516 106.534 41.2716 106.461 39.6716 106.408V108.828C39.6716 109.828 39.8049 110.328 40.0716 110.328H40.7116C42.1782 110.301 43.1916 110.094 43.7516 109.708L43.8516 108.928C43.8782 108.848 43.9449 108.808 44.0516 108.808C44.1716 108.808 44.2516 108.808 44.2916 108.808C44.3716 108.834 44.4116 108.874 44.4116 108.928C44.3316 109.488 44.2916 110.274 44.2916 111.288C44.2916 111.354 44.1982 111.388 44.0116 111.388C43.8382 111.388 43.7516 111.354 43.7516 111.288V110.968H40.1916L36.7916 111.008C36.6982 111.008 36.6516 110.908 36.6516 110.708C36.6516 110.508 36.6916 110.408 36.7716 110.408H37.6716C37.8182 110.408 37.9049 110.381 37.9316 110.328C37.9582 110.261 37.9716 110.094 37.9716 109.828V103.528C37.9716 102.461 37.8382 101.928 37.5716 101.928H36.8516C36.6916 101.928 36.6116 101.828 36.6116 101.628C36.6116 101.414 36.6849 101.308 36.8316 101.308ZM48.2675 110.968L46.1275 111.008C46.0342 111.008 45.9875 110.908 45.9875 110.708C45.9875 110.508 46.0208 110.408 46.0875 110.408H47.0675C47.2275 110.408 47.3075 110.294 47.3075 110.068V103.508C47.3075 102.454 47.1608 101.928 46.8675 101.928H46.1675C46.0208 101.928 45.9475 101.828 45.9475 101.628C45.9475 101.414 46.0075 101.308 46.1275 101.308C47.3142 101.334 48.5275 101.348 49.7675 101.348C51.0075 101.348 51.9675 101.601 52.6475 102.108C53.3275 102.614 53.6675 103.268 53.6675 104.068C53.6675 104.681 53.3875 105.268 52.8275 105.828C52.2675 106.374 51.5275 106.648 50.6075 106.648C50.0075 106.648 49.4742 106.568 49.0075 106.408V109.028C49.0075 109.908 49.1408 110.348 49.4075 110.348H50.4075C50.5142 110.348 50.5675 110.454 50.5675 110.668C50.5675 110.868 50.5342 110.968 50.4675 110.968H48.2675ZM49.4075 101.948C49.1408 101.948 49.0075 102.168 49.0075 102.608V105.728C49.1542 105.754 49.3742 105.768 49.6675 105.768C50.3075 105.768 50.8142 105.594 51.1875 105.248C51.5742 104.888 51.7675 104.454 51.7675 103.948C51.7675 103.441 51.5742 102.981 51.1875 102.568C50.8008 102.154 50.2075 101.948 49.4075 101.948ZM61.3208 101.308L62.9008 101.348C63.0474 101.348 63.1741 101.348 63.2808 101.348L65.3608 101.308C65.4541 101.308 65.5008 101.408 65.5008 101.608C65.5008 101.794 65.4474 101.888 65.3408 101.888H64.4208C64.2474 101.888 64.1608 101.994 64.1608 102.208V108.828C64.1608 109.841 64.2941 110.348 64.5608 110.348H65.5608C65.6674 110.348 65.7208 110.454 65.7208 110.668C65.7208 110.868 65.6808 110.968 65.6008 110.968L63.2808 110.948L61.2808 111.008C61.1874 111.008 61.1408 110.908 61.1408 110.708C61.1408 110.508 61.1808 110.408 61.2608 110.408H62.1608C62.3074 110.408 62.3941 110.381 62.4208 110.328C62.4474 110.261 62.4608 110.094 62.4608 109.828V106.568H57.6208V108.828C57.6208 109.841 57.7541 110.348 58.0208 110.348H59.0208C59.1274 110.348 59.1808 110.454 59.1808 110.668C59.1808 110.868 59.1408 110.968 59.0608 110.968L56.7408 110.948L54.7408 111.008C54.6474 111.008 54.6008 110.908 54.6008 110.708C54.6008 110.508 54.6408 110.408 54.7208 110.408H55.6208C55.7674 110.408 55.8541 110.381 55.8808 110.328C55.9074 110.261 55.9208 110.094 55.9208 109.828V103.528C55.9208 102.461 55.7874 101.928 55.5208 101.928H54.8008C54.6408 101.928 54.5608 101.828 54.5608 101.628C54.5608 101.414 54.6341 101.308 54.7808 101.308L56.3608 101.348C56.5074 101.348 56.6341 101.348 56.7408 101.348L58.8208 101.308C58.9141 101.308 58.9608 101.408 58.9608 101.608C58.9608 101.794 58.9074 101.888 58.8008 101.888H57.8808C57.7074 101.888 57.6208 101.994 57.6208 102.208V105.808H62.4608V103.528C62.4608 102.461 62.3274 101.928 62.0608 101.928H61.3408C61.1808 101.928 61.1008 101.828 61.1008 101.628C61.1008 101.414 61.1741 101.308 61.3208 101.308ZM67.4566 101.308L69.4966 101.348H73.6366V101.028C73.6366 100.948 73.7232 100.908 73.8966 100.908C74.0832 100.908 74.1766 100.948 74.1766 101.028C74.1766 102.081 74.2232 102.834 74.3166 103.288C74.3432 103.368 74.2699 103.408 74.0966 103.408C73.8699 103.408 73.7566 103.368 73.7566 103.288C73.5699 102.674 73.3899 102.328 73.2166 102.248C72.6566 102.048 71.8432 101.948 70.7766 101.948C70.5899 101.961 70.4632 102.014 70.3966 102.108C70.3299 102.201 70.2966 102.368 70.2966 102.608V105.888C71.9099 105.834 72.7966 105.761 72.9566 105.668L73.0966 104.828C73.1232 104.761 73.2166 104.728 73.3766 104.728C73.5499 104.728 73.6366 104.774 73.6366 104.868C73.5832 105.254 73.5566 105.688 73.5566 106.168C73.5566 106.634 73.5832 107.061 73.6366 107.448C73.6366 107.528 73.5432 107.568 73.3566 107.568C73.1832 107.568 73.0966 107.541 73.0966 107.488L72.9366 106.628C72.7766 106.534 71.8966 106.461 70.2966 106.408V108.828C70.2966 109.828 70.4299 110.328 70.6966 110.328H71.3366C72.8032 110.301 73.8166 110.094 74.3766 109.708L74.4766 108.928C74.5032 108.848 74.5699 108.808 74.6766 108.808C74.7966 108.808 74.8766 108.808 74.9166 108.808C74.9966 108.834 75.0366 108.874 75.0366 108.928C74.9566 109.488 74.9166 110.274 74.9166 111.288C74.9166 111.354 74.8232 111.388 74.6366 111.388C74.4632 111.388 74.3766 111.354 74.3766 111.288V110.968H70.8166L67.4166 111.008C67.3232 111.008 67.2766 110.908 67.2766 110.708C67.2766 110.508 67.3166 110.408 67.3966 110.408H68.2966C68.4432 110.408 68.5299 110.381 68.5566 110.328C68.5832 110.261 68.5966 110.094 68.5966 109.828V103.528C68.5966 102.461 68.4632 101.928 68.1966 101.928H67.4766C67.3166 101.928 67.2366 101.828 67.2366 101.628C67.2366 101.414 67.3099 101.308 67.4566 101.308ZM85.7925 101.348L87.6325 101.308C87.7125 101.308 87.7525 101.408 87.7525 101.608C87.7525 101.794 87.7125 101.888 87.6325 101.888H86.9325C86.7458 101.888 86.6258 101.934 86.5725 102.028C86.3325 102.441 86.2125 105.441 86.2125 111.028C86.2125 111.161 86.0992 111.228 85.8725 111.228C85.6592 111.228 85.5058 111.181 85.4125 111.088C82.7458 107.914 80.5992 105.341 78.9725 103.368H78.9125C78.9525 105.728 78.9925 107.701 79.0325 109.288C79.0325 109.981 79.1325 110.328 79.3325 110.328H80.1325C80.2125 110.328 80.2525 110.434 80.2525 110.648C80.2525 110.848 80.2125 110.948 80.1325 110.948H78.4725L76.6525 110.988C76.5858 110.988 76.5525 110.894 76.5525 110.708C76.5525 110.508 76.5858 110.408 76.6525 110.408H77.1325C77.5458 110.408 77.7592 110.274 77.7725 110.008C77.9725 107.848 78.0725 105.321 78.0725 102.428C77.8592 102.174 77.6792 102.028 77.5325 101.988C77.3858 101.948 77.1125 101.928 76.7125 101.928C76.6325 101.928 76.5925 101.828 76.5925 101.628C76.5925 101.414 76.6325 101.308 76.7125 101.308L79.5325 101.348C82.7725 105.454 84.6792 107.888 85.2525 108.648H85.2925C85.2392 105.154 85.1925 103.161 85.1525 102.668C85.1125 102.174 85.0058 101.928 84.8325 101.928H84.1325C84.0392 101.928 83.9925 101.828 83.9925 101.628C83.9925 101.414 84.0392 101.308 84.1325 101.308L85.7925 101.348Z" fill="black"/>
<path d="M38.9963 34.8465L36.9393 36.3949C36.8891 36.4326 36.8233 36.4515 36.7574 36.4515C36.6915 36.4515 36.6259 36.4326 36.5755 36.3949C36.4748 36.3192 36.4748 36.1967 36.5755 36.1213L38.4506 34.7099L36.5758 33.2982C36.4752 33.2225 36.4752 33.1001 36.5758 33.0246C36.6764 32.9488 36.839 32.9488 36.9393 33.0246L38.9963 34.5729C39.0969 34.6486 39.0969 34.7711 38.9963 34.8465ZM42.2429 36.5807H38.8144C38.6723 36.5807 38.5573 36.6673 38.5573 36.7742C38.5573 36.8812 38.6723 36.9678 38.8144 36.9678H42.2429C42.3849 36.9678 42.5 36.8812 42.5 36.7742C42.5 36.6673 42.3849 36.5807 42.2429 36.5807Z" fill="white"/>
<path d="M45.0651 48.3756C45.1268 48.3756 45.1871 48.3439 45.2207 48.2868C45.2714 48.201 45.2427 48.0903 45.1569 48.0397L43.0359 46.7898L45.1569 45.5401C45.2427 45.4895 45.2714 45.3789 45.2207 45.293C45.1702 45.2074 45.06 45.1788 44.9736 45.2292L42.5888 46.6344C42.5338 46.6668 42.5 46.7259 42.5 46.7898C42.5 46.8538 42.5337 46.9129 42.5888 46.9453L44.9736 48.3506C45.0024 48.3675 45.034 48.3756 45.0651 48.3756Z" fill="black"/>
<path d="M51.0737 46.6343L48.689 45.2292C48.603 45.1789 48.4925 45.2073 48.4419 45.293C48.3912 45.3788 48.4198 45.4895 48.5057 45.54L50.6265 46.7898L48.5057 48.0396C48.4198 48.0902 48.3912 48.2009 48.4419 48.2867C48.4755 48.3438 48.5357 48.3756 48.5975 48.3756C48.6286 48.3756 48.6601 48.3674 48.689 48.3505L51.0737 46.9452C51.1287 46.9128 51.1625 46.8537 51.1625 46.7898C51.1625 46.7258 51.1286 46.6667 51.0737 46.6343Z" fill="black"/>
<path d="M48.8394 42.9889C48.7511 42.942 48.642 42.976 48.5955 43.0641L44.7478 50.347C44.7013 50.4351 44.735 50.5442 44.8231 50.5907C44.85 50.605 44.8789 50.6117 44.9072 50.6117C44.972 50.6117 45.0347 50.5768 45.067 50.5155L48.9147 43.2326C48.9612 43.1445 48.9275 43.0354 48.8394 42.9889Z" fill="black"/>
<path d="M88.9888 101.57L88.6573 100.281V103.228L88.9888 101.57Z" fill="black"/>
<path d="M90.1739 100.931L88.6573 100.281L92.3406 103.965L90.1739 100.931Z" fill="black"/>
<path d="M89.2736 98.4623L88.6572 100.281L95.2872 93.6514L89.2736 98.4623Z" fill="black"/>
<path d="M88.0073 98.7648L88.6573 100.281L88.6573 92.9148L88.0073 98.7648Z" fill="black"/>
<path d="M90.4762 99.665L88.6572 100.281L96.0238 100.281L90.4762 99.665Z" fill="black"/>
<path d="M87.9205 101.018L88.6571 100.281H85.7105L87.9205 101.018Z" fill="black"/>
<path d="M87.3681 99.9499L88.6572 100.281L84.9739 96.5981L87.3681 99.9499Z" fill="black"/>
</svg>
