<svg width="105" height="110" viewBox="0 0 105 110" fill="none" xmlns="http://www.w3.org/2000/svg">
<mask id="mask0_408_181" style="mask-type:alpha" maskUnits="userSpaceOnUse" x="0" y="0" width="105" height="110">
<rect width="105" height="110" fill="#D9D9D9"/>
</mask>
<g mask="url(#mask0_408_181)">
<path d="M95.8556 81.343C90.2524 81.2048 85.9099 81.7594 82.2677 83.2833C81.2171 83.6989 79.536 83.6993 79.3958 85.0155C79.9565 85.5701 80.0264 86.4708 80.5167 87.2327C81.3578 88.618 82.828 90.4892 84.1589 91.4594C85.6296 92.5678 87.1006 93.6762 88.6412 94.6464C91.3729 96.3094 94.4548 97.2792 97.1162 98.9422C98.6577 99.9115 100.198 101.159 101.739 102.199C102.509 102.752 102.999 103.654 103.98 104V103.792C103.49 103.168 103.35 102.268 102.86 101.575C102.16 100.882 101.459 100.258 100.758 99.5655C98.7271 96.8636 96.2058 94.5077 93.4741 92.5678C91.2332 91.0434 86.33 88.9649 85.4195 86.4012C85.4195 86.4012 85.3492 86.3321 85.2794 86.263C86.8203 86.1243 88.6412 85.5701 90.1123 85.1541C92.4938 84.5304 94.6649 84.669 97.1162 84.0457C98.2367 83.7684 99.3576 83.422 100.478 83.0756V82.4522C99.2179 81.2047 98.307 79.5421 96.9761 78.3642C93.4042 75.315 89.4817 72.3362 85.4195 69.8421C83.248 68.4564 80.4464 67.5553 78.1353 66.3778C77.2951 65.9614 75.8939 65.754 75.404 65.0612C74.1429 63.5368 73.4425 61.5278 72.5321 59.726C70.5016 55.9149 68.5397 51.689 66.7887 47.6705C65.5286 44.9682 64.7579 42.2659 63.2169 39.7718C56.0029 27.9932 48.1584 20.8568 36.1115 13.8586C33.5199 12.4038 30.4385 11.7801 27.1465 11.0181C25.396 10.9485 23.6445 10.8103 21.8935 10.7408C20.7731 10.2557 19.6522 8.9395 18.6714 8.31575C14.68 5.82119 4.3836 0.417399 1.44185 7.55378C-0.449306 12.0574 4.24344 16.4914 5.85425 18.7782C7.04545 20.3717 8.58597 22.1729 9.42653 23.9747C9.9169 25.1517 10.0566 26.3997 10.547 27.6467C11.6679 30.6946 12.718 34.0902 14.1891 36.9312C14.9598 38.3861 15.8 39.9105 16.7807 41.2266C17.3409 41.9886 18.3212 42.3354 18.5317 43.5825C17.5514 44.9682 17.4811 47.0468 16.9204 48.779C14.3992 56.6082 15.3799 66.3083 18.9517 72.0589C20.0722 73.7906 22.734 77.6022 26.3059 76.1469C29.4577 74.8999 28.7573 70.9505 29.6677 67.4862C29.8782 66.6542 29.738 66.1005 30.1581 65.5463C30.1585 65.6154 30.1581 65.6849 30.1581 65.6849C31.1388 67.6248 32.1191 69.4957 33.0295 71.4355C35.201 74.8303 38.9829 78.3641 42.1347 80.7201C43.8163 81.9667 45.1468 84.1148 47.2479 84.8772V84.669H47.1078C46.6873 84.0453 46.0572 83.7684 45.4969 83.2833C44.2363 82.0362 42.8351 80.5118 41.8548 79.1261C38.9135 75.2458 36.3215 70.9505 34.0103 66.516C32.8898 64.3683 31.9091 62.0124 30.9987 59.8647C30.5782 59.0328 30.5782 57.7861 29.8778 57.3706C28.8272 58.8945 27.2867 60.2112 26.5159 62.082C25.1859 65.0612 25.0453 68.7333 24.5549 72.544C24.275 72.6135 24.4148 72.544 24.2746 72.6826C22.0337 72.128 21.263 69.8421 20.4224 67.9017C18.3212 62.9826 17.971 55.0838 19.7923 49.4027C20.2827 47.9474 22.3839 43.3747 21.5433 41.989C21.1232 40.6724 19.722 39.9104 18.9517 38.8711C18.0413 37.5545 17.0606 35.8919 16.4305 34.4367C14.7494 30.5568 13.9088 26.261 12.088 22.3807C11.2474 20.579 9.77673 18.7087 8.58597 17.046C7.25549 15.1752 5.78438 13.8586 4.73378 11.6414C4.38402 10.8794 3.89321 9.63235 4.45344 8.80083C4.59361 8.24663 4.8735 8.03886 5.43417 7.9002C6.3446 7.13779 8.93615 8.10797 9.84656 8.52351C12.4381 9.56236 14.6092 10.533 16.7807 11.9878C17.761 12.6807 18.8115 13.9973 20.0722 14.3437H21.5433C23.7846 14.8284 26.3059 14.4824 28.4071 15.1057C32.1195 16.2832 35.4809 18.0158 38.493 19.8866C47.6684 25.6372 55.2322 33.8133 60.3454 43.5825C61.186 45.1756 61.5358 46.6313 62.3065 48.2939C63.7776 51.6891 65.5984 55.1534 67.0691 58.479C68.5397 61.7351 69.9405 65.0612 72.0417 67.7635C73.0927 69.2179 77.2947 69.9803 79.1858 70.7427C80.5866 71.366 82.7581 71.9207 84.0187 72.6827C86.3998 74.137 88.7813 75.8005 91.0227 77.394C92.1436 78.2251 95.6451 79.9577 95.8556 81.343Z" fill="#00546B"/>
</g>
</svg>
