<svg width="105" height="110" viewBox="0 0 105 110" fill="none" xmlns="http://www.w3.org/2000/svg">
<mask id="mask0_408_188" style="mask-type:alpha" maskUnits="userSpaceOnUse" x="0" y="0" width="105" height="110">
<rect width="105" height="110" fill="#D9D9D9"/>
</mask>
<g mask="url(#mask0_408_188)">
<path d="M52.7299 31C26.3705 31 5.00018 41.8297 5.00018 55.1883C5.00018 68.5469 26.3705 79.3766 52.7299 79.3766C79.0892 79.3766 100.46 68.5469 100.46 55.1883C100.46 41.8297 79.0892 31 52.7299 31ZM40.3103 59.9008C39.1713 60.9664 37.9064 61.4063 36.5135 61.8594C35.1205 62.3133 33.3478 62.2195 31.1924 62.2195H26.3072L24.9533 70.032H19.2494L24.3392 43.4695H35.308C38.608 43.4695 41.015 44.4187 42.5283 46.1508C44.0416 47.8828 44.4963 50.3414 43.8932 53.4453C43.6439 54.7242 43.2244 55.9133 42.6322 56.9727C42.0392 58.0328 41.265 59.0227 40.3103 59.9008ZM56.9596 62.2195L59.2103 50.9539C59.4666 49.6352 59.3728 48.6555 58.9283 48.1766C58.483 47.6969 57.5361 47.3758 56.0885 47.3758H51.565L48.6502 62.2195H42.9908L48.0807 36.4383H53.74L52.3869 43.4695H57.4283C60.601 43.4695 62.7885 44.1062 63.9924 45.2125C65.1963 46.3187 65.5572 47.8344 65.076 50.3125L62.708 62.2195H56.9596ZM88.4119 53.4867C88.1635 54.7656 87.7432 55.9344 87.1517 56.993C86.5596 58.0531 85.7861 59.0227 84.8307 59.9008C83.6916 60.9664 82.426 61.4063 81.0338 61.8594C79.6416 62.3133 77.8674 62.2195 75.7119 62.2195H70.8267L69.4736 70.032H63.7697L68.8588 43.4695H79.8283C83.1283 43.4695 85.5353 44.4187 87.0478 46.1508C88.5596 47.8828 89.015 50.3836 88.4119 53.4867ZM77.6666 47.3758H73.7596L71.6291 58.3133H75.0994C77.3978 58.3133 79.1119 58.0867 80.2369 57.2195C81.3635 56.3539 82.1221 55.0102 82.5166 52.9844C82.8947 51.0383 82.7228 49.5203 82.001 48.7203C81.2783 47.9203 79.8338 47.3758 77.6666 47.3758ZM33.1471 47.3758H29.2392L27.1088 58.3133H30.5783C32.8775 58.3133 34.5908 58.0867 35.7166 57.2195C36.8424 56.3539 37.6017 55.0102 37.9955 52.9844C38.3736 51.0383 38.2017 49.5203 37.4799 48.7203C36.758 47.9203 35.3142 47.3758 33.1471 47.3758Z" fill="#6181B6"/>
</g>
</svg>
