<svg width="105" height="110" viewBox="0 0 105 110" fill="none" xmlns="http://www.w3.org/2000/svg">
<mask id="mask0_408_179" style="mask-type:alpha" maskUnits="userSpaceOnUse" x="0" y="0" width="105" height="110">
<rect width="105" height="110" fill="#D9D9D9"/>
</mask>
<g mask="url(#mask0_408_179)">
<path d="M52.5202 5C27.1951 5 28.7766 16.0256 28.7766 16.0256L28.8048 27.4479H52.972V30.8775H19.2057C19.2057 30.8775 3.00018 29.0324 3.00018 54.6859C3.00018 80.3394 17.1447 79.4296 17.1447 79.4296H25.5863V67.5254C25.5863 67.5254 25.1313 53.3254 39.505 53.3254H63.4745C63.4745 53.3254 76.9415 53.544 76.9415 40.2591V18.293C76.9415 18.293 78.9861 5 52.5202 5ZM39.1944 12.681C41.5989 12.681 43.5422 14.632 43.5422 17.0459C43.5423 19.4598 41.5989 21.4108 39.1944 21.4108C36.79 21.4108 34.8466 19.4598 34.8466 17.0459C34.8466 14.632 36.79 12.681 39.1944 12.681Z" fill="url(#paint0_linear_408_179)"/>
<path d="M53.2395 104.629C78.5646 104.629 76.9832 93.6034 76.9832 93.6034L76.9549 82.181H52.7878V78.7515H86.554C86.554 78.7515 102.76 80.5965 102.76 54.943C102.76 29.2896 88.615 30.1993 88.615 30.1993H80.1735V42.1035C80.1735 42.1035 80.6285 56.3035 66.2548 56.3035H42.2853C42.2853 56.3035 28.8183 56.085 28.8183 69.3698V91.3359C28.8183 91.3359 26.7736 104.629 53.2395 104.629ZM66.5653 96.9479C64.1609 96.9479 62.2175 94.9969 62.2175 92.583C62.2175 90.1691 64.1609 88.2182 66.5653 88.2182C68.9698 88.2182 70.9132 90.1691 70.9132 92.583C70.9132 94.9969 68.9698 96.9479 66.5653 96.9479Z" fill="url(#paint1_linear_408_179)"/>
</g>
<defs>
<linearGradient id="paint0_linear_408_179" x1="2457.29" y1="2290.15" x2="15161.9" y2="14770" gradientUnits="userSpaceOnUse">
<stop stop-color="#387EB8"/>
<stop offset="1" stop-color="#366994"/>
</linearGradient>
<linearGradient id="paint1_linear_408_179" x1="3651.22" y1="3936.24" x2="17292.2" y2="16730.9" gradientUnits="userSpaceOnUse">
<stop stop-color="#FFE052"/>
<stop offset="1" stop-color="#FFC331"/>
</linearGradient>
</defs>
</svg>
