<svg width="105" height="110" viewBox="0 0 105 110" fill="none" xmlns="http://www.w3.org/2000/svg">
<mask id="mask0_408_184" style="mask-type:alpha" maskUnits="userSpaceOnUse" x="0" y="0" width="105" height="110">
<rect width="105" height="110" fill="#D9D9D9"/>
</mask>
<g mask="url(#mask0_408_184)">
<path d="M105 55.0114C105 47.5727 96.2892 40.523 82.9342 36.1513C86.0161 21.5942 84.6464 10.0126 78.6109 6.30465C77.2197 5.43488 75.5931 5.02289 73.8167 5.02289V10.127C74.8013 10.127 75.5932 10.333 76.2566 10.7221C79.1673 12.5074 80.4301 19.3053 79.4456 28.0488C79.2102 30.2003 78.8249 32.4662 78.3541 34.778C74.1592 33.6793 69.5791 32.8325 64.7636 32.2831C61.8742 28.0488 58.8779 24.2035 55.8602 20.8389C62.8373 13.9036 69.3865 10.1041 73.8382 10.1041V5C67.9525 5 60.2477 9.48615 52.4572 17.2683C44.6667 9.53193 36.9619 5.09155 31.0762 5.09155V10.1957C35.5065 10.1957 42.077 13.9723 49.0542 20.8618C46.0579 24.2264 43.0616 28.0488 40.215 32.2831C35.3781 32.8325 30.798 33.6793 26.6031 34.8009C26.1109 32.512 25.747 30.2918 25.4902 28.1632C24.4843 19.4198 25.7256 12.6219 28.615 10.8137C29.257 10.4017 30.0917 10.2186 31.0762 10.2186V5.11444C29.2784 5.11444 27.6519 5.52644 26.2393 6.3962C20.2252 10.1041 18.8769 21.6629 21.9802 36.1742C8.66796 40.5688 0 47.5956 0 55.0114C0 62.4502 8.71076 69.4999 22.0658 73.8716C18.9839 88.4287 20.3536 100.01 26.3891 103.718C27.7803 104.588 29.4069 105 31.2046 105C37.0903 105 44.7951 100.514 52.5856 92.7317C60.3761 100.468 68.0809 104.908 73.9666 104.908C75.7644 104.908 77.391 104.496 78.8035 103.627C84.8176 99.9187 86.1659 88.36 83.0626 73.8487C96.332 69.477 105 62.4273 105 55.0114ZM77.1341 39.7448C76.3422 42.6974 75.3577 45.7416 74.2448 48.7858C73.3673 46.9547 72.447 45.1236 71.4411 43.2925C70.4566 41.4614 69.4079 39.6761 68.3592 37.9366C71.3983 38.4173 74.3304 39.0124 77.1341 39.7448ZM67.3318 64.1211C65.6625 67.211 63.9503 70.1408 62.1739 72.8645C58.9849 73.162 55.7532 73.3223 52.5 73.3223C49.2682 73.3223 46.0365 73.1621 42.8689 72.8874C41.0925 70.1637 39.3589 67.2568 37.6896 64.1897C36.063 61.1913 34.5862 58.1472 33.2379 55.0801C34.5648 52.013 36.063 48.946 37.6682 45.9476C39.3376 42.8576 41.0497 39.9279 42.8261 37.2042C46.0151 36.9066 49.2468 36.7464 52.5 36.7464C55.7318 36.7464 58.9635 36.9066 62.1311 37.1813C63.9075 39.905 65.6411 42.8119 67.3104 45.8789C68.937 48.8773 70.4138 51.9215 71.7621 54.9886C70.4138 58.0556 68.937 61.1227 67.3318 64.1211ZM74.2448 61.1456C75.4005 64.2126 76.385 67.2797 77.1983 70.2552C74.3946 70.9876 71.4411 71.6056 68.3806 72.0863C69.4293 70.3239 70.478 68.5157 71.4625 66.6617C72.447 64.8306 73.3673 62.9766 74.2448 61.1456ZM52.5428 85.5676C50.5524 83.3703 48.562 80.9213 46.5929 78.2433C48.5192 78.3349 50.4882 78.4035 52.4786 78.4035C54.4904 78.4035 56.4808 78.3577 58.4285 78.2433C56.5022 80.9213 54.5118 83.3703 52.5428 85.5676ZM36.6194 72.0863C33.5803 71.6056 30.6482 71.0105 27.8445 70.2781C28.6364 67.3255 29.6209 64.2813 30.7338 61.2371C31.6113 63.0682 32.5316 64.8993 33.5375 66.7304C34.5434 68.5615 35.5707 70.3468 36.6194 72.0863ZM52.4358 24.4553C54.4262 26.6526 56.4166 29.1016 58.3856 31.7796C56.4594 31.688 54.4904 31.6194 52.5 31.6194C50.4882 31.6194 48.4978 31.6651 46.5501 31.7796C48.4764 29.1016 50.4668 26.6526 52.4358 24.4553ZM36.598 37.9366C35.5493 39.699 34.5006 41.5072 33.5161 43.3612C32.5316 45.1923 31.6113 47.0233 30.7338 48.8544C29.5781 45.7874 28.5936 42.7203 27.7803 39.7448C30.584 39.0352 33.5375 38.4173 36.598 37.9366ZM17.2289 66.593C9.65247 63.1369 4.75132 58.6049 4.75132 55.0114C4.75132 51.4179 9.65247 46.8631 17.2289 43.4298C19.0695 42.583 21.0813 41.8276 23.1574 41.1181C24.3773 45.6043 25.9825 50.2735 27.9729 55.0572C26.0039 59.818 24.4201 64.4644 23.2216 68.9277C21.1027 68.2181 19.0909 67.4399 17.2289 66.593ZM28.7434 99.3008C25.8327 97.5154 24.5699 90.7176 25.5544 81.9741C25.7899 79.8226 26.1751 77.5566 26.6459 75.2449C30.8408 76.3436 35.4209 77.1904 40.2364 77.7398C43.1258 81.9741 46.1221 85.8194 49.1398 89.184C42.1627 96.1192 35.6135 99.9187 31.1618 99.9187C30.1987 99.8959 29.3854 99.6899 28.7434 99.3008ZM79.5098 81.8597C80.5157 90.6031 79.2744 97.401 76.385 99.2092C75.743 99.6212 74.9083 99.8043 73.9238 99.8043C69.4935 99.8043 62.923 96.0277 55.9458 89.1382C58.9421 85.7736 61.9384 81.9512 64.785 77.7169C69.6219 77.1675 74.202 76.3207 78.3969 75.1991C78.8891 77.5109 79.2744 79.7311 79.5098 81.8597ZM87.7497 66.593C85.9091 67.4399 83.8973 68.1952 81.8212 68.9048C80.6013 64.4186 78.9961 59.7494 77.0057 54.9657C78.9747 50.2048 80.5585 45.5585 81.757 41.0952C83.8759 41.8048 85.8877 42.583 87.7711 43.4298C95.3475 46.886 100.249 51.4179 100.249 55.0114C100.227 58.6049 95.3261 63.1598 87.7497 66.593Z" fill="#61DAFB"/>
<path d="M52.4786 65.4714C57.8804 65.4714 62.2595 60.7883 62.2595 55.0113C62.2595 49.2344 57.8804 44.5513 52.4786 44.5513C47.0768 44.5513 42.6977 49.2344 42.6977 55.0113C42.6977 60.7883 47.0768 65.4714 52.4786 65.4714Z" fill="#61DAFB"/>
</g>
</svg>
