<svg width="105" height="110" viewBox="0 0 105 110" fill="none" xmlns="http://www.w3.org/2000/svg">
<mask id="mask0_408_190" style="mask-type:alpha" maskUnits="userSpaceOnUse" x="0" y="0" width="105" height="110">
<rect width="105" height="110" fill="#D9D9D9"/>
</mask>
<g mask="url(#mask0_408_190)">
<path d="M54.6633 88.4148C54.0165 88.2687 53.3876 88.0664 52.7563 87.8797L52.2805 87.7352C51.6633 87.5461 51.0516 87.3469 50.443 87.1375L50.1907 87.0461C49.6454 86.8547 49.1063 86.6523 48.5704 86.4453L48.1157 86.2664C47.5282 86.0344 46.9438 85.7922 46.3673 85.5391L46.018 85.3844C45.5219 85.1594 45.0313 84.9328 44.5423 84.6977L44.1157 84.493C43.7321 84.3062 43.3524 84.1078 42.9743 83.9125C42.7212 83.7789 42.4633 83.6531 42.2126 83.5141C41.7501 83.2664 41.2962 83.0094 40.8446 82.7469L40.3829 82.4891C39.7821 82.1359 39.1883 81.7695 38.6016 81.3977L38.1212 81.0773C37.6946 80.8031 37.2712 80.5234 36.8532 80.2344L36.4446 79.9477C36.0415 79.6625 35.643 79.3742 35.2462 79.0813L34.7157 78.6797C34.3532 78.4023 33.9915 78.1227 33.6344 77.8344L33.1524 77.4477C32.6985 77.0734 32.2493 76.6984 31.8055 76.3125L31.6587 76.1883C31.179 75.7672 30.7079 75.3352 30.243 74.9016L29.8446 74.518C29.5001 74.1898 29.161 73.8594 28.8274 73.5203L28.429 73.1227C28.0048 72.6883 27.5883 72.2484 27.1798 71.8023L27.1188 71.7367C26.6868 71.2648 26.2657 70.7828 25.8524 70.2961L25.5212 69.9023C25.2126 69.5313 24.9079 69.1555 24.6094 68.7758L24.2758 68.3602C23.9173 67.8945 23.5665 67.4312 23.2235 66.9586C13.7313 54.0102 10.3204 36.1523 17.9079 21.4867L11.1805 30.0188C2.56413 42.4023 3.63678 58.5156 10.2188 71.675C10.3751 71.9906 10.5399 72.3008 10.7008 72.6109L11.0094 73.2039L11.2008 73.5453L11.5438 74.1594C11.7485 74.5195 11.9579 74.8781 12.1727 75.2367L12.5305 75.8273C12.768 76.2109 13.011 76.5898 13.2602 76.968L13.5712 77.4477C13.9133 77.9594 14.2649 78.4703 14.6274 78.9719L14.6579 79.0109L14.836 79.2516C15.1485 79.6836 15.4719 80.1102 15.7985 80.532L16.1602 80.993C16.4516 81.3594 16.7477 81.7234 17.0501 82.0859L17.3899 82.4922C17.7946 82.9687 18.2079 83.443 18.629 83.9078L18.654 83.9336L18.7024 83.9867C19.1133 84.4359 19.5352 84.875 19.9618 85.3141L20.3657 85.7211C20.6962 86.0539 21.0321 86.3812 21.3712 86.707L21.7821 87.0977C22.2352 87.525 22.693 87.9437 23.1602 88.3531L23.1821 88.3703L23.4219 88.575C23.8329 88.9313 24.2516 89.2852 24.6743 89.632L25.193 90.0453C25.5376 90.3219 25.886 90.5937 26.2368 90.8609L26.7946 91.2852C27.1813 91.5703 27.5719 91.8508 27.9657 92.125L28.3923 92.4273L28.5094 92.5109C28.8829 92.768 29.2649 93.0156 29.6469 93.2633L30.1391 93.5914C30.7243 93.9617 31.3188 94.3281 31.9188 94.682L32.411 94.9594C32.8524 95.2141 33.2969 95.4641 33.7477 95.7086C33.9915 95.8398 34.2415 95.9641 34.4868 96.0898C34.8048 96.2562 35.1204 96.425 35.4438 96.5867L35.6649 96.6937L36.0563 96.8828C36.5571 97.1219 37.0618 97.357 37.5719 97.5836L37.8923 97.7273C38.4766 97.9828 39.0657 98.2281 39.6602 98.4625L40.0907 98.632C40.6407 98.8437 41.1985 99.0531 41.7587 99.25L41.968 99.3227C42.5821 99.5375 43.2032 99.7367 43.8282 99.9312L44.2774 100.066C44.9133 100.257 45.5415 100.486 46.1977 100.607C87.8688 108.206 99.9735 75.5656 99.9735 75.5656C89.8063 88.8109 71.761 92.3047 54.6633 88.4148ZM39.6524 54.6406C40.586 55.9789 41.6212 57.5711 42.8594 58.6461C43.3087 59.1406 43.7782 59.6234 44.2579 60.0977L44.6266 60.4609C45.0923 60.9125 45.5657 61.3562 46.0548 61.7875L46.1126 61.8375L46.1266 61.8516C46.668 62.3266 47.2266 62.782 47.7946 63.232L48.1727 63.5273C48.7422 63.9641 49.3227 64.3922 49.9173 64.8016L49.968 64.8398C50.2305 65.0211 50.4985 65.1898 50.7649 65.3648L51.1415 65.6141C51.5665 65.8867 51.9977 66.1523 52.4352 66.407L52.618 66.5133C52.9954 66.7305 53.3782 66.9445 53.761 67.1523L54.168 67.3641C54.4329 67.5023 54.6977 67.6437 54.968 67.7781L55.0891 67.8328C55.6376 68.1031 56.1915 68.3641 56.7579 68.6102L57.1266 68.7617C57.5782 68.9539 58.0352 69.1414 58.4938 69.3164L59.0798 69.5313C59.4962 69.6859 59.9141 69.8266 60.336 69.968L60.904 70.15C61.5032 70.3359 62.0954 70.5711 62.7196 70.675C94.8938 76.0055 102.321 51.2328 102.321 51.2328C95.6259 60.8758 82.6587 65.4773 68.8219 61.8852C68.2071 61.7234 67.6016 61.5484 66.9993 61.3586L66.4524 61.1812C66.0243 61.043 65.5993 60.8961 65.1774 60.7422L64.6024 60.5281C64.1407 60.35 63.6837 60.1672 63.2305 59.975L62.861 59.8187C62.293 59.5719 61.7337 59.3109 61.1829 59.0383C60.8985 58.9 60.6196 58.7539 60.3407 58.6102L59.8548 58.3602C59.4969 58.1664 59.1407 57.9648 58.7899 57.7586L58.5352 57.6141C58.0993 57.3602 57.6712 57.0977 57.2462 56.8266L56.8571 56.5672C56.5774 56.3859 56.2969 56.2008 56.0219 56.0148C55.429 55.6055 54.8524 55.1773 54.2829 54.743L53.8915 54.4344C47.8352 49.6531 43.0344 43.1172 40.7516 35.707C38.3594 28.0227 38.8758 19.3961 43.0196 12.3945L37.9282 19.582C31.6962 28.5492 32.0352 40.5539 36.8962 50.0375C37.711 51.6297 38.6274 53.1727 39.6524 54.6406ZM73.5641 43.5477C73.829 43.6453 74.0938 43.7328 74.3626 43.8242L74.7149 43.9359C75.093 44.0547 75.4696 44.193 75.861 44.2672C93.6258 47.7 98.4454 35.1508 99.7274 33.3031C95.5063 39.3805 88.4133 40.8391 79.7094 38.7266C79.0219 38.5602 78.2657 38.3117 77.6032 38.0766C76.7532 37.7734 75.9157 37.4281 75.1024 37.0383C73.5563 36.2953 72.0837 35.3945 70.718 34.3633C62.9298 28.4531 58.0915 17.1805 63.1735 8L60.4235 11.7898C56.7501 17.1961 56.3891 23.9102 58.9383 29.8805C61.6266 36.218 67.1352 41.1891 73.5641 43.5477Z" fill="#0868AC"/>
</g>
</svg>
