<svg width="105" height="110" viewBox="0 0 105 110" fill="none" xmlns="http://www.w3.org/2000/svg">
<mask id="mask0_408_182" style="mask-type:alpha" maskUnits="userSpaceOnUse" x="0" y="0" width="105" height="110">
<rect width="105" height="110" fill="#D9D9D9"/>
</mask>
<g mask="url(#mask0_408_182)">
<path d="M9.10736 53.9984C9.10736 70.9771 18.974 85.6485 33.2814 92.6022L12.8209 36.5422C10.3682 42.0347 9.10272 47.9831 9.10736 53.9984ZM80.9561 51.8339C80.9561 55.5058 79.545 59.767 77.6898 65.6997L73.4123 79.9965L57.9117 33.888C60.4924 33.7525 62.8209 33.4791 62.8209 33.4791C65.1315 33.2057 64.8597 29.8096 62.5459 29.9459C62.5459 29.9459 55.6003 30.4903 51.1146 30.4903C46.9 30.4903 39.8164 29.9459 39.8164 29.9459C37.5051 29.8096 37.2341 33.3436 39.5455 33.4791C39.5455 33.4791 41.7336 33.7525 44.0434 33.888L50.727 52.1971L41.3394 80.3491L25.7196 33.8888C28.3052 33.7534 30.6297 33.4799 30.6297 33.4799C32.9386 33.2065 32.666 29.8105 30.3538 29.9468C30.3538 29.9468 23.4091 30.4911 18.9226 30.4911C18.1178 30.4911 17.1686 30.4707 16.1623 30.4405C23.8318 18.7955 37.0154 11.1072 52.0002 11.1072C63.167 11.1072 73.334 15.3757 80.9659 22.367C80.7798 22.3564 80.5995 22.3327 80.4093 22.3327C76.1971 22.3327 73.2075 26.003 73.2075 29.9459C73.2075 33.4791 75.2446 36.4712 77.4189 40.0044C79.052 42.8618 80.9561 46.5329 80.9561 51.8339ZM52.7527 57.7503L65.9387 93.8714C66.0221 94.0773 66.1243 94.2751 66.2439 94.4623C61.7852 96.0293 56.9951 96.8936 52.0002 96.8936C47.8984 96.8937 43.8179 96.3049 39.8834 95.1454L52.7527 57.7503ZM89.6369 33.4195C93.0953 39.7265 94.9028 46.8055 94.8914 53.9984C94.8914 69.823 86.3143 83.6383 73.5625 91.0744L86.6644 53.1936C89.1129 47.0756 89.9258 42.1827 89.9258 37.8301C89.9258 36.2533 89.8213 34.7858 89.6369 33.4195ZM52.0002 4C79.5687 4 102.002 26.4291 102.003 53.9984C102.003 81.5717 79.5687 104 52.0002 104C24.4301 104 2.00018 81.5709 2.00018 53.9984C2.00018 26.4291 24.4309 4 52.0002 4ZM52.0002 101.707C78.3036 101.707 99.7051 80.305 99.7051 53.9984C99.7051 27.6941 78.3044 6.29343 52.0002 6.29343C25.6943 6.29343 4.2928 27.6941 4.2928 53.9984C4.2928 80.305 25.6951 101.707 52.0002 101.707Z" fill="#00749A"/>
</g>
</svg>
